<?xml version="1.0" standalone="no"?>
<!DOCTYPE svg PUBLIC "-//W3C//DTD SVG 20010904//EN"
 "http://www.w3.org/TR/2001/REC-SVG-20010904/DTD/svg10.dtd">
<svg version="1.0" xmlns="http://www.w3.org/2000/svg"
 width="512.000000pt" height="512.000000pt" viewBox="0 0 512.000000 512.000000"
 preserveAspectRatio="xMidYMid meet">

<g transform="translate(0.000000,512.000000) scale(0.100000,-0.100000)"
fill="#DDE6ED" stroke="none">
<path d="M2430 4903 c-485 -34 -905 -190 -1290 -477 -124 -92 -355 -324 -450
-451 -212 -283 -350 -584 -425 -930 -36 -166 -48 -292 -48 -485 0 -96 5 -220
12 -275 43 -348 169 -698 359 -995 113 -179 346 -435 510 -564 544 -428 1222
-596 1897 -471 182 34 295 69 323 101 32 36 31 106 -2 139 -36 36 -71 41 -145
20 -368 -101 -731 -113 -1085 -34 -629 139 -1186 591 -1462 1185 -268 577
-260 1253 21 1829 427 874 1384 1345 2345 1154 634 -126 1196 -563 1485 -1154
235 -481 279 -1006 130 -1546 -21 -74 -16 -109 20 -145 33 -33 103 -34 139 -2
73 64 158 574 141 848 -28 462 -155 851 -396 1212 -93 140 -163 224 -303 363
-348 347 -777 567 -1261 649 -165 28 -370 40 -515 29z"/>
<path d="M2470 4239 c-83 -50 -187 -221 -215 -354 -11 -53 -15 -150 -15 -406
l0 -336 -367 -133 c-549 -198 -531 -189 -572 -280 -16 -36 -21 -66 -21 -151 0
-93 3 -111 26 -157 29 -58 65 -88 129 -108 39 -11 90 -9 421 21 208 19 379 34
380 32 1 -1 4 -160 6 -353 l3 -350 -78 -48 c-51 -31 -87 -61 -105 -88 -26 -40
-27 -47 -30 -197 -3 -175 5 -201 70 -241 45 -27 89 -25 263 10 81 16 167 30
190 30 23 0 109 -14 190 -30 81 -16 167 -30 189 -30 56 0 106 29 133 76 20 35
23 53 23 174 0 187 -21 228 -154 305 l-62 37 4 351 c2 194 5 353 7 355 1 1
169 -13 373 -32 277 -25 383 -32 414 -24 66 14 112 50 142 109 23 47 26 64 26
158 0 110 -16 168 -58 214 -29 32 -93 58 -504 207 l-398 144 0 336 c0 255 -4
352 -15 405 -28 134 -133 306 -216 354 -49 28 -131 28 -179 0z m143 -290 c21
-41 42 -101 47 -134 6 -33 10 -223 10 -422 l0 -363 28 -29 c22 -24 108 -58
462 -186 239 -87 443 -162 453 -167 13 -7 17 -22 17 -68 0 -53 -2 -60 -19 -60
-11 0 -191 16 -401 35 -475 44 -473 44 -511 6 l-29 -29 0 -284 c0 -156 -5
-370 -11 -477 -12 -233 -18 -218 125 -304 l96 -58 0 -61 c0 -49 -3 -59 -15
-54 -46 17 -242 47 -310 46 -44 0 -133 -11 -198 -23 l-118 -24 3 60 3 61 98
59 c129 78 130 81 117 243 -5 70 -10 282 -10 471 l0 345 -29 29 c-38 38 -37
38 -508 -6 -208 -19 -388 -35 -401 -35 -22 0 -23 3 -20 63 l3 62 452 165 c299
109 460 173 475 188 23 22 23 23 28 430 5 385 7 410 27 459 31 77 73 145 86
140 7 -2 29 -37 50 -78z"/>
<path d="M4090 1704 c-121 -21 -154 -30 -217 -55 -216 -90 -384 -287 -440
-517 -21 -88 -21 -256 0 -344 66 -272 276 -483 552 -553 94 -24 256 -24 350 0
341 87 568 377 568 725 0 403 -302 720 -708 744 -44 2 -91 3 -105 0z m205
-229 c135 -35 268 -140 332 -261 189 -357 -65 -784 -465 -784 -243 0 -456 163
-517 395 -19 76 -19 194 0 270 47 178 198 331 376 379 72 19 201 20 274 1z"/>
<path d="M4113 1374 c-55 -27 -63 -61 -63 -254 0 -136 3 -179 16 -205 23 -50
194 -211 232 -220 70 -15 142 57 127 127 -5 19 -36 60 -81 108 l-74 77 0 143
c0 162 -10 198 -65 224 -41 20 -52 20 -92 0z"/>
</g>
</svg>
